# xmcd
#
# Track frame offsets:
#	150
#	13670
#	34135
#	50967
#	70005
#	86517
#	102989
#	116928
#	137704
#	160172
#	175986
#	197619
#	218747
#	234504
#	254864
#
# Disc length: 3608 seconds
#
# Revision: 12
# Processed by: cddbd v1.5.2PL0 Copyright (c) Steve Scherf et al.
# Submitted via: EasyCDDAExtractor 15.3.0.1
#
DISCID=dc0e160f
DTITLE=Natalia Oreiro - Tu Veneno
DYEAR=2000
DGENRE=Latin
TTITLE0=Tu Veneno
TTITLE1=Rio De La Plata
TTITLE2=Como Te Olvido
TTITLE3=Luna Brava
TTITLE4=Aburrida
TTITLE5=Estamos Todos Solos (We're All Alone)
TTITLE6=Gitano Corazon
TTITLE7=Febrero
TTITLE8=Donde Ira
TTITLE9=Basta De Ti
TTITLE10=Mata Y Envenena
TTITLE11=Si Me Vas A Dar Tu Amor
TTITLE12=Que Pena Me Das
TTITLE13=Un Ramito De Violetas
TTITLE14=Caliente
EXTD=YEAR: 2000 ID3G: 17
EXTT0=
EXTT1=
EXTT2=
EXTT3=
EXTT4=
EXTT5=we´re all alone
EXTT6=
EXTT7=
EXTT8=
EXTT9=
EXTT10=
EXTT11=
EXTT12=
EXTT13=
EXTT14=
PLAYORDER=
